<?xml version="1.0" standalone="no"?>
<!DOCTYPE svg PUBLIC "-//W3C//DTD SVG 20010904//EN"
 "http://www.w3.org/TR/2001/REC-SVG-20010904/DTD/svg10.dtd">
<svg version="1.0" xmlns="http://www.w3.org/2000/svg"
 width="312.000000pt" height="197.000000pt" viewBox="0 0 312.000000 197.000000"
 preserveAspectRatio="xMidYMid meet">

<g transform="translate(0.000000,197.000000) scale(0.100000,-0.100000)"
fill="#000000" stroke="none">
<path d="M0 985 l0 -985 1560 0 1560 0 0 985 0 985 -1560 0 -1560 0 0 -985z
m950 664 c0 -28 -56 -120 -105 -173 l-55 -59 6 34 c11 54 43 110 92 162 46 47
62 56 62 36z m1276 -87 c19 -25 39 -63 45 -86 5 -23 13 -50 16 -61 8 -26 -126
132 -139 165 -6 14 -14 37 -18 52 l-9 28 36 -27 c19 -15 50 -47 69 -71z
m-1450 2 c-4 -14 -9 -24 -12 -21 -3 2 -2 17 2 31 3 15 9 25 11 22 3 -3 2 -17
-1 -32z m1531 -11 c-3 -10 -5 -4 -5 12 0 17 2 24 5 18 2 -7 2 -21 0 -30z
m-1557 -72 c6 -30 8 -56 5 -59 -6 -6 -12 12 -20 62 -3 21 -9 36 -11 33 -5 -5
6 -71 21 -127 5 -19 4 -22 -4 -10 -17 25 -34 116 -27 145 10 38 23 21 36 -44z
m1599 -68 c-6 -24 -16 -46 -22 -50 -15 -9 -3 143 14 163 13 16 14 13 17 -27 2
-24 -2 -63 -9 -86z m-1631 -80 c6 -24 8 -54 5 -66 -3 -16 -2 -18 5 -9 5 8 11
13 13 12 15 -7 104 16 122 32 l22 19 -25 -12 c-13 -6 -46 -18 -73 -25 -48 -12
-49 -12 -31 7 9 10 24 19 33 19 9 1 40 9 69 19 64 22 70 7 19 -44 -25 -25 -46
-35 -82 -41 -30 -4 -57 -16 -72 -30 -21 -21 -23 -21 -23 -4 0 10 6 20 13 23 8
2 3 17 -17 46 -20 28 -30 58 -34 94 l-5 52 26 -24 c15 -14 30 -42 35 -68z
m232 72 c-20 -24 -111 -63 -165 -70 l-50 -6 25 18 c14 10 29 17 33 15 5 -1 6
2 2 8 -12 19 57 50 114 50 46 0 52 -2 41 -15z m1294 -10 c18 -9 42 -29 54 -45
l22 -29 -38 6 c-50 8 -127 41 -148 64 -17 18 -16 19 30 19 27 0 63 -7 80 -15z
m167 -41 c-3 -44 -29 -94 -47 -94 -8 0 -10 13 -7 43 12 87 62 135 54 51z
m-1198 -28 l47 -23 41 20 c56 27 140 27 194 0 l40 -21 40 21 c55 29 146 29
200 1 l41 -22 39 21 c55 29 146 29 202 -1 163 -85 163 -320 0 -404 -55 -28
-148 -28 -202 0 -40 20 -40 20 -78 0 -53 -27 -143 -27 -197 0 l-42 21 -42 -22
c-54 -29 -145 -29 -201 0 -39 20 -39 20 -77 1 -83 -43 -176 -32 -249 30 -54
46 -79 101 -79 175 0 166 177 278 323 203z m1040 -17 c53 -16 73 -28 87 -51
12 -20 20 -25 24 -16 3 7 5 5 4 -7 -1 -23 11 -55 21 -55 3 0 6 15 7 33 0 34
37 97 56 97 19 0 -1 -63 -37 -117 -21 -31 -35 -65 -35 -83 0 -26 2 -29 14 -18
8 7 11 17 8 22 -3 5 0 6 7 2 7 -5 10 -15 7 -23 -3 -7 11 3 32 24 43 44 46 60
3 19 -26 -25 -29 -26 -35 -9 -4 9 -4 14 0 10 4 -3 20 5 36 18 31 26 58 33 58
15 0 -25 -32 -68 -79 -108 -28 -24 -52 -51 -53 -60 -1 -9 -4 8 -7 38 l-6 55
-59 31 c-33 18 -65 43 -72 57 l-13 24 45 -8 c51 -10 84 -25 84 -40 0 -5 -10
-3 -22 5 -13 8 -34 17 -48 20 -14 3 -7 -2 15 -13 22 -10 44 -18 49 -19 5 0 13
-6 17 -14 6 -9 9 -2 9 20 0 44 -28 68 -89 77 -37 5 -59 15 -80 35 -30 30 -49
75 -28 66 7 -3 43 -15 80 -27z m-1568 -90 c8 -30 15 -65 15 -79 1 -24 2 -23
15 7 7 17 27 39 44 47 33 17 91 22 91 7 0 -16 -58 -59 -95 -71 -45 -15 -57
-38 -52 -97 3 -27 2 -38 0 -26 -2 13 -26 40 -53 60 -48 37 -100 115 -81 121 5
2 25 -5 43 -14 18 -10 36 -17 40 -16 4 1 4 -6 1 -15 -5 -12 -3 -14 7 -8 7 5
11 4 8 -1 -3 -5 0 -15 8 -22 12 -11 14 -7 14 22 0 19 -5 38 -11 41 -6 4 -8 13
-5 21 3 8 1 13 -5 11 -15 -3 -49 62 -49 93 l0 25 25 -26 c14 -14 32 -50 40
-80z m96 -197 c-28 -24 -51 -51 -51 -61 0 -9 -5 -22 -12 -29 -9 -9 -9 -12 0
-12 7 0 12 -7 12 -15 0 -10 -19 0 -57 29 -70 53 -88 73 -102 109 -9 24 -8 27
9 27 26 0 94 -62 110 -101 15 -34 30 -23 30 22 0 53 19 85 63 106 l42 20 3
-25 c3 -21 -7 -35 -47 -70z m1552 40 c12 -11 17 -26 15 -43 -2 -14 2 -31 10
-38 8 -8 11 -24 7 -44 l-5 -32 13 30 c7 17 18 28 23 27 5 -2 20 11 33 30 l23
33 -31 -35 c-17 -19 -31 -29 -31 -23 0 21 76 93 98 93 49 0 4 -76 -72 -125
-30 -19 -59 -43 -64 -52 -7 -12 -8 -3 -5 30 5 46 5 47 -51 100 -33 32 -56 63
-56 75 0 20 1 20 38 5 20 -8 45 -22 55 -31z m-1503 -77 c0 -40 -5 -52 -40 -88
l-39 -42 -1 47 c0 41 5 54 36 88 20 22 38 40 40 40 2 0 4 -20 4 -45z m1486
-79 l2 -53 -36 39 c-28 31 -36 49 -40 91 l-4 52 38 -37 c34 -34 39 -43 40 -92z
m-1454 92 c-7 -7 -12 -8 -12 -2 0 14 12 26 19 19 2 -3 -1 -11 -7 -17z m1355
-10 c-3 -8 -6 -5 -6 6 -1 11 2 17 5 13 3 -3 4 -12 1 -19z m-1345 -117 c-3 -12
-19 -38 -37 -56 -18 -18 -36 -41 -39 -51 -3 -11 -4 9 -2 43 3 52 9 68 37 103
l34 42 5 -28 c3 -16 4 -40 2 -53z m1408 -59 l0 -46 -35 34 c-36 35 -52 82 -40
119 6 20 9 18 41 -20 28 -34 34 -49 34 -87z m-1632 94 c20 -13 55 -38 76 -55
l40 -32 -45 6 c-83 12 -88 14 -109 55 -11 21 -20 42 -20 45 0 11 22 4 58 -19z
m1832 0 c0 -7 -10 -28 -23 -47 -19 -29 -30 -35 -74 -40 -28 -4 -56 -10 -62
-13 -6 -4 -11 -4 -11 1 0 4 12 16 28 25 15 10 49 33 76 53 52 38 66 42 66 21z
m-1550 -119 c-5 -15 -18 -40 -29 -55 -11 -16 -21 -43 -23 -62 -3 -34 -4 -35
-49 -38 -38 -2 -52 2 -75 22 l-29 25 31 1 c17 0 50 -7 73 -14 l41 -15 -7 59
c-5 55 -3 63 28 111 l33 52 8 -29 c4 -16 4 -42 -2 -57z m1285 -47 l6 -35 -15
39 c-8 21 -20 44 -26 50 -7 6 -6 -2 3 -19 8 -16 17 -50 21 -75 5 -34 4 -39 -4
-22 -5 12 -21 39 -35 59 -24 36 -34 101 -18 116 10 11 62 -75 68 -113z m-1510
51 c22 -6 56 -22 75 -36 l34 -25 -66 0 c-63 0 -67 2 -97 35 -37 43 -40 58 -8
45 12 -5 40 -14 62 -19z m1745 3 c0 -8 -13 -29 -29 -45 -26 -26 -36 -29 -90
-29 -34 0 -61 4 -61 8 0 9 70 43 135 66 22 7 41 14 43 15 1 0 2 -6 2 -15z
m-1613 -66 c-3 -7 -5 -2 -5 12 0 14 2 19 5 13 2 -7 2 -19 0 -25z m129 -83 c-4
-18 -13 -38 -21 -45 -13 -11 -15 -7 -15 24 0 20 8 51 17 69 17 31 18 31 21 8
2 -13 1 -38 -2 -56z m1184 -39 c0 -28 -1 -28 -19 -12 -22 20 -35 74 -24 102 6
15 10 12 25 -21 9 -22 18 -53 18 -69z m-1300 84 c0 -5 -2 -10 -4 -10 -3 0 -8
5 -11 10 -3 6 -1 10 4 10 6 0 11 -4 11 -10z m1490 -29 c0 -30 -88 -53 -136
-34 -13 5 -6 10 27 24 48 19 109 25 109 10z m-103 -77 c-3 -3 -12 -4 -19 -1
-8 3 -5 6 6 6 11 1 17 -2 13 -5z m-1740 -221 l33 -58 0 58 c0 33 4 57 10 57 7
0 10 -27 8 -72 -2 -40 -7 -73 -13 -73 -5 0 -23 25 -40 55 l-30 55 -3 -57 c-4
-85 -22 -71 -22 17 0 93 13 97 57 18z m223 47 c0 -5 -11 -10 -25 -10 -18 0
-25 -5 -25 -20 0 -15 7 -20 25 -20 14 0 25 -4 25 -10 0 -5 -11 -10 -25 -10
-20 0 -25 -5 -25 -25 0 -21 5 -25 31 -25 17 0 28 -4 24 -10 -3 -5 -22 -10 -41
-10 l-34 0 0 75 0 75 35 0 c19 0 35 -4 35 -10z m120 -50 c0 -47 4 -62 16 -67
32 -12 49 11 54 73 4 42 8 54 14 41 13 -28 0 -109 -20 -124 -24 -17 -49 -16
-68 3 -18 18 -23 134 -6 134 6 0 10 -27 10 -60z m236 3 l26 -58 23 55 c13 30
30 56 39 58 14 3 16 -8 16 -72 0 -91 -18 -102 -22 -13 l-3 62 -24 -62 c-13
-35 -27 -63 -31 -63 -4 0 -18 28 -31 63 l-24 62 -3 -63 c-4 -81 -22 -71 -22
12 0 97 19 103 56 19z m284 -13 c13 -38 21 -73 17 -77 -4 -4 -10 3 -14 15 -7
30 -69 32 -78 2 -3 -11 -11 -20 -17 -20 -6 0 -7 7 -3 18 4 9 16 43 27 75 11
31 25 57 32 57 6 0 23 -31 36 -70z m190 60 c0 -5 -13 -10 -30 -10 -23 0 -30
-4 -30 -20 0 -15 7 -20 25 -20 14 0 25 -4 25 -10 0 -5 -11 -10 -25 -10 -20 0
-25 -5 -25 -25 0 -21 5 -25 30 -25 17 0 30 -4 30 -10 0 -5 -18 -10 -40 -10
l-40 0 0 75 0 75 40 0 c22 0 40 -4 40 -10z m110 -15 c7 -14 16 -25 20 -25 4 0
12 11 18 25 6 14 16 25 22 25 14 0 13 -4 -10 -42 -19 -33 -19 -34 0 -63 21
-32 25 -45 13 -45 -5 0 -16 14 -26 32 l-18 32 -20 -33 c-11 -18 -23 -31 -26
-28 -3 4 4 22 15 40 20 34 20 35 1 63 -21 32 -24 44 -11 44 5 0 15 -11 22 -25z
m234 3 c13 -19 14 -25 2 -43 -7 -11 -23 -21 -35 -23 -15 -2 -21 -11 -21 -27 0
-13 -4 -27 -10 -30 -6 -4 -10 22 -10 69 l0 76 29 0 c19 0 35 -8 45 -22z m180
0 c8 -13 8 -23 0 -35 -8 -13 -7 -26 3 -51 8 -19 11 -37 7 -41 -4 -3 -8 -1 -11
4 -13 36 -31 60 -46 63 -14 3 -17 -4 -17 -33 0 -22 -4 -34 -10 -30 -11 7 -14
128 -3 139 13 13 66 1 77 -16z m186 12 c0 -5 -13 -10 -30 -10 -23 0 -30 -4
-30 -20 0 -15 7 -20 25 -20 14 0 25 -4 25 -10 0 -5 -11 -10 -25 -10 -20 0 -25
-5 -25 -25 0 -21 5 -25 30 -25 17 0 30 -4 30 -10 0 -5 -18 -10 -40 -10 l-40 0
0 75 0 75 40 0 c22 0 40 -4 40 -10z m155 0 c4 -6 -7 -10 -24 -10 -40 0 -41
-24 -2 -44 37 -20 44 -40 22 -67 -14 -17 -24 -20 -44 -15 -36 9 -35 24 2 18
42 -6 50 24 11 46 -35 20 -47 47 -30 67 14 17 56 20 65 5z m160 0 c4 -6 -5
-10 -19 -10 -35 0 -33 -21 4 -48 17 -13 30 -31 30 -42 0 -25 -35 -43 -66 -36
-35 9 -29 24 8 22 43 -1 48 24 8 46 -31 18 -42 61 -17 71 21 9 46 7 52 -3z"/>
<path d="M873 1568 c-17 -18 -38 -49 -47 -68 -9 -19 -11 -26 -4 -16 7 11 24
33 38 50 61 75 67 91 13 34z"/>
<path d="M2166 1589 c5 -9 26 -36 48 -60 31 -36 36 -39 23 -14 -8 17 -30 44
-48 60 -17 17 -28 23 -23 14z"/>
<path d="M2342 1489 c-1 -15 -4 -42 -7 -60 -5 -31 -5 -32 5 -9 6 13 9 40 7 60
-3 25 -4 28 -5 9z"/>
<path d="M676 1370 c3 -14 11 -32 16 -40 6 -10 7 -7 2 10 -3 14 -11 32 -16 40
-6 10 -7 7 -2 -10z"/>
<path d="M830 1385 c-31 -18 -16 -18 30 0 23 9 28 14 15 14 -11 0 -31 -6 -45
-14z"/>
<path d="M2216 1376 c23 -7 46 -16 53 -20 6 -4 11 -4 11 -1 0 9 -66 35 -87 34
-10 0 0 -6 23 -13z"/>
<path d="M2391 1358 c-16 -43 -22 -68 -18 -68 3 0 12 20 20 45 16 45 14 65 -2
23z"/>
<path d="M1040 1317 c-19 -7 -34 -18 -33 -25 2 -6 -3 -9 -10 -6 -17 6 -51 -31
-42 -46 3 -6 1 -9 -7 -8 -7 2 -12 -5 -12 -14 1 -10 -3 -15 -9 -11 -6 4 -8 -2
-5 -15 4 -12 2 -20 -3 -16 -13 7 -11 -99 2 -133 26 -69 119 -132 195 -133 46
0 144 45 152 70 3 9 -7 5 -24 -10 l-29 -25 29 32 c16 18 33 31 39 30 5 -1 12
4 15 12 3 9 0 11 -8 6 -9 -5 -11 -4 -6 4 4 6 12 8 18 5 7 -5 9 0 6 14 -4 12
-3 20 2 17 13 -8 20 57 11 97 -22 96 -95 160 -188 165 -32 2 -74 -3 -93 -10z
m122 -39 c48 -14 105 -75 114 -122 19 -104 -54 -196 -156 -196 -57 0 -103 22
-135 64 -68 89 -29 212 81 251 48 17 48 17 96 3z"/>
<path d="M1060 1255 c-11 -13 -10 -20 6 -42 34 -46 50 -50 78 -24 32 30 42 61
25 72 -23 15 -95 10 -109 -6z"/>
<path d="M985 1190 c-8 -16 -15 -43 -15 -60 0 -26 4 -30 26 -30 28 0 65 16 76
34 5 6 8 2 8 -10 0 -52 57 -55 71 -3 4 13 7 19 8 12 1 -12 53 -33 84 -33 17 0
19 5 14 46 -8 78 -50 96 -84 37 -13 -24 -22 -28 -58 -28 -37 0 -45 4 -64 33
-26 40 -46 41 -66 2z"/>
<path d="M1032 1079 c-48 -14 -52 -36 -13 -71 45 -40 85 -36 89 9 4 36 -12 73
-31 72 -7 0 -27 -5 -45 -10z"/>
<path d="M1141 1076 c-7 -8 -11 -32 -9 -53 2 -30 8 -39 24 -41 26 -4 84 43 84
68 0 23 -5 26 -51 35 -26 5 -39 2 -48 -9z"/>
<path d="M1332 1319 c-18 -5 -30 -14 -27 -19 3 -6 -1 -7 -9 -4 -18 7 -20 -4
-7 -25 7 -11 15 -11 41 -2 155 54 286 -96 205 -234 -14 -25 -39 -49 -59 -59
-40 -19 -114 -21 -150 -5 -20 9 -29 9 -41 -1 -18 -15 -9 -34 12 -26 8 3 12 2
9 -3 -8 -13 50 -31 98 -31 119 1 225 128 201 242 -15 70 -71 148 -95 133 -6
-3 -9 -1 -8 7 2 8 -6 13 -19 12 -12 0 -20 3 -18 7 12 18 -78 24 -133 8z m91
-6 c-13 -2 -33 -2 -45 0 -13 2 -3 4 22 4 25 0 35 -2 23 -4z m-36 -389 c-3 -3
-12 -4 -19 -1 -8 3 -5 6 6 6 11 1 17 -2 13 -5z m50 0 c-3 -3 -12 -4 -19 -1 -8
3 -5 6 6 6 11 1 17 -2 13 -5z"/>
<path d="M1607 1318 c-15 -5 -24 -14 -21 -20 4 -7 2 -8 -4 -4 -21 12 -33 -4
-17 -21 13 -13 21 -13 45 -3 47 20 118 14 156 -12 72 -49 96 -152 51 -219 -48
-71 -124 -96 -206 -68 -27 10 -36 9 -48 -4 -14 -14 -12 -17 16 -31 17 -9 50
-19 75 -22 46 -7 120 11 111 27 -4 5 0 6 8 4 20 -8 65 31 89 78 42 80 22 192
-44 254 -51 48 -144 66 -211 41z m50 -4 c-3 -3 -12 -4 -19 -1 -8 3 -5 6 6 6
11 1 17 -2 13 -5z m41 -391 c-10 -2 -26 -2 -35 0 -10 3 -2 5 17 5 19 0 27 -2
18 -5z"/>
<path d="M1897 1323 c-9 -2 -15 -9 -12 -14 3 -5 -1 -6 -10 -3 -8 4 -22 1 -30
-6 -14 -11 -13 -15 5 -27 14 -10 25 -11 39 -3 35 18 115 12 151 -12 57 -39 75
-72 75 -138 0 -66 -18 -99 -75 -137 -37 -26 -111 -31 -154 -12 -20 9 -29 9
-41 -1 -18 -15 -9 -34 12 -26 8 3 12 2 9 -3 -8 -12 48 -31 89 -31 44 0 97 19
88 33 -3 6 -1 7 6 3 18 -12 68 31 90 77 28 57 28 137 0 194 -23 48 -65 86 -86
78 -8 -2 -12 -1 -9 4 13 21 -93 38 -147 24z m40 -9 c-3 -3 -12 -4 -19 -1 -8 3
-5 6 6 6 11 1 17 -2 13 -5z m60 0 c-3 -3 -12 -4 -19 -1 -8 3 -5 6 6 6 11 1 17
-2 13 -5z m-19 -391 c-10 -2 -28 -2 -40 0 -13 2 -5 4 17 4 22 1 32 -1 23 -4z"/>
<path d="M1343 1260 c-13 -5 -23 -14 -23 -20 0 -26 30 -80 45 -80 13 0 13 -3
3 -20 -17 -27 1 -55 35 -55 21 1 27 -6 37 -38 6 -21 18 -41 27 -44 21 -8 73
49 73 81 0 30 -22 38 -72 27 -28 -7 -35 -6 -32 4 5 13 -21 45 -36 45 -5 0 -3
19 5 41 22 61 -2 83 -62 59z"/>
<path d="M1615 1258 c-11 -6 -21 -12 -23 -14 -8 -6 40 -84 52 -84 30 0 64 78
43 99 -14 14 -46 14 -72 -1z"/>
<path d="M1900 1259 c-34 -14 -34 -13 -10 -58 11 -23 28 -41 38 -42 10 0 12
-3 5 -6 -7 -2 -13 -17 -13 -33 0 -30 21 -44 50 -35 13 4 19 -2 23 -22 8 -40
31 -67 50 -60 21 8 57 65 57 90 0 25 -26 32 -72 20 -36 -10 -38 -9 -38 13 0
14 -8 25 -20 29 -16 5 -19 11 -13 28 4 12 7 36 8 52 0 34 -21 42 -65 24z"/>
<path d="M1439 1223 c-5 -15 -9 -38 -7 -52 3 -24 7 -26 53 -26 43 0 50 3 53
21 3 24 -48 84 -72 84 -9 0 -21 -12 -27 -27z"/>
<path d="M1719 1223 c-5 -15 -9 -38 -7 -52 3 -24 7 -26 53 -26 61 0 69 19 30
70 -32 42 -62 45 -76 8z"/>
<path d="M2005 1240 c-4 -6 -11 -25 -16 -42 -12 -42 3 -58 56 -58 49 0 64 20
41 55 -33 50 -66 69 -81 45z"/>
<path d="M1652 1148 c-28 -28 -1 -75 36 -64 15 5 21 -1 31 -34 17 -56 38 -62
73 -20 31 38 37 77 11 87 -9 3 -33 2 -54 -4 -21 -5 -36 -6 -33 -2 9 14 -16 49
-34 49 -10 0 -23 -5 -30 -12z"/>
<path d="M1637 1069 c-16 -9 -52 -68 -45 -74 33 -27 105 -34 114 -10 8 20 -14
73 -35 85 -10 5 -24 4 -34 -1z"/>
<path d="M1352 1063 c-12 -5 -47 -62 -40 -68 33 -28 105 -34 115 -9 3 9 -1 31
-10 50 -16 32 -33 40 -65 27z"/>
<path d="M1890 1038 c-11 -18 -20 -36 -20 -41 0 -11 47 -27 81 -27 37 0 44 18
25 64 -20 49 -58 50 -86 4z"/>
<path d="M2220 1286 c14 -8 43 -17 65 -20 l40 -6 -44 15 c-76 25 -89 28 -61
11z"/>
<path d="M651 1250 c14 -31 19 -36 19 -24 0 6 -7 19 -16 30 -14 18 -14 18 -3
-6z"/>
<path d="M768 1184 c-16 -8 -28 -17 -28 -20 0 -2 12 2 28 9 15 8 34 17 42 20
13 5 13 5 0 6 -8 0 -27 -7 -42 -15z"/>
<path d="M619 1136 c19 -20 36 -36 38 -36 10 0 -33 53 -51 62 -14 7 -10 -1 13
-26z"/>
<path d="M799 1083 c-13 -16 -12 -17 4 -4 9 7 17 15 17 17 0 8 -8 3 -21 -13z"/>
<path d="M756 1054 c-23 -23 -20 -30 4 -9 11 10 20 20 20 22 0 7 -9 2 -24 -13z"/>
<path d="M639 1006 c19 -20 37 -36 38 -36 9 0 -34 49 -52 60 -11 7 -4 -4 14
-24z"/>
<path d="M2305 1044 c17 -16 32 -28 34 -27 7 4 -21 34 -43 45 -14 7 -11 2 9
-18z"/>
<path d="M781 954 c-13 -19 -22 -36 -20 -39 3 -2 15 12 28 31 13 19 22 36 20
39 -3 2 -15 -12 -28 -31z"/>
<path d="M2260 983 c0 -5 11 -24 25 -43 14 -19 25 -31 25 -27 0 3 -11 23 -25
43 -14 20 -25 33 -25 27z"/>
<path d="M834 888 c-4 -7 -14 -24 -22 -38 -14 -24 -13 -24 3 -5 20 24 37 55
31 55 -3 0 -8 -6 -12 -12z"/>
<path d="M2246 855 c24 -39 24 -40 24 -28 0 6 -9 21 -21 34 l-20 24 17 -30z"/>
<path d="M649 876 c13 -16 51 -41 51 -33 0 2 -15 14 -32 27 -21 15 -28 17 -19
6z"/>
<path d="M2400 855 c-19 -14 -29 -25 -23 -25 7 0 25 11 40 25 36 31 28 31 -17
0z"/>
<path d="M880 781 c-5 -11 -10 -30 -9 -43 1 -18 3 -17 8 8 4 17 11 36 15 42 4
7 5 12 2 12 -3 0 -10 -9 -16 -19z"/>
<path d="M780 660 c8 -5 24 -10 34 -10 26 0 18 6 -19 14 -22 5 -26 4 -15 -4z"/>
<path d="M691 766 c2 -2 20 -6 39 -10 25 -4 31 -3 20 4 -14 9 -69 15 -59 6z"/>
<path d="M2348 753 c6 -2 18 -2 25 0 6 3 1 5 -13 5 -14 0 -19 -2 -12 -5z"/>
<path d="M946 649 c-8 -42 0 -50 9 -9 4 17 5 34 2 36 -2 3 -7 -10 -11 -27z"/>
<path d="M2120 636 c0 -14 4 -27 8 -30 5 -3 6 8 4 25 -5 35 -12 38 -12 5z"/>
<path d="M2265 653 c-11 -3 -24 -9 -29 -14 -5 -4 8 -3 30 2 58 16 57 26 -1 12z"/>
<path d="M1312 371 c-14 -39 -12 -44 16 -39 17 3 18 6 7 38 l-12 34 -11 -33z"/>
<path d="M1840 375 c0 -18 5 -25 19 -25 20 0 31 17 24 38 -3 6 -13 12 -24 12
-14 0 -19 -7 -19 -25z"/>
<path d="M2010 380 c0 -15 7 -20 25 -20 18 0 25 5 25 20 0 15 -7 20 -25 20
-18 0 -25 -5 -25 -20z"/>
</g>
</svg>
